<svg width="369" height="84" viewBox="0 0 369 84" fill="none" xmlns="http://www.w3.org/2000/svg">
<g clip-path="url(#clip0_4_167)">
<path d="M151.7 0.899902V2.3999H148.6V3.9999H150.9V5.5999H148.6V7.1999H151.7V8.7999H147V0.899902H151.7Z" fill="#363A36"/>
<path d="M158.6 7.20005C159.1 7.20005 159.5 6.80005 159.5 6.40005C159.5 5.70005 158.6 5.60005 158 5.40005C157.1 5.10005 156.2 4.30005 156.2 3.20005C156.2 1.90005 157.3 0.800049 158.6 0.800049C159.8 0.800049 160.8 1.70005 161 2.90005L159.4 3.20005C159.4 2.80005 159.1 2.40005 158.6 2.40005C158.2 2.40005 157.8 2.80005 157.8 3.20005C157.8 3.90005 158.7 4.10005 159.3 4.30005C160.3 4.60005 161.1 5.30005 161.1 6.40005C161.1 7.70005 160 8.80005 158.6 8.80005C157.4 8.80005 156.3 7.90005 156.1 6.70005L157.7 6.40005C157.7 6.90005 158.2 7.20005 158.6 7.20005Z" fill="#363A36"/>
<path d="M171 0.899902V2.4999H169.1V8.7999H167.5V2.4999H165.5V0.899902H171Z" fill="#363A36"/>
<path d="M174.8 8C174.8 7.4 175.2 7 175.8 7C176.3 7 176.8 7.4 176.8 8C176.8 8.6 176.3 9 175.8 9C175.2 9 174.8 8.6 174.8 8Z" fill="#363A36"/>
<path d="M190 3.60005H188.4C188.4 2.86672 188.7 2.23338 189.3 1.70005C189.833 1.10005 190.467 0.800049 191.2 0.800049C192 0.800049 192.667 1.10005 193.2 1.70005C193.8 2.23338 194.1 2.86672 194.1 3.60005C194.1 4.06672 193.967 4.53338 193.7 5.00005C193.433 5.46672 193.1 5.90005 192.7 6.30005C192.4 6.60005 192.2 6.90005 191.8 7.20005H194V8.80005H188.4L188.7 7.90005C189.6 7.20005 190.5 6.40005 191.2 5.60005C191.6 5.20005 191.9 4.83338 192.1 4.50005C192.367 4.16672 192.5 3.86672 192.5 3.60005C192.5 3.00005 191.9 2.40005 191.2 2.40005C190.6 2.40005 190 3.00005 190 3.60005Z" fill="#363A36"/>
<path fill-rule="evenodd" clip-rule="evenodd" d="M201.6 0.800049C202.533 0.800049 203.3 1.20005 203.9 2.00005C204.433 2.80005 204.7 3.73338 204.7 4.80005C204.7 5.93338 204.433 6.86672 203.9 7.60005C203.3 8.40005 202.533 8.80005 201.6 8.80005C199.7 8.80005 198.5 6.90005 198.5 4.80005C198.5 2.70005 199.7 0.800049 201.6 0.800049ZM201.6 2.40005C201.2 2.40005 200.867 2.56672 200.6 2.90005C200.267 3.43338 200.1 4.06672 200.1 4.80005C200.1 5.60005 200.267 6.23338 200.6 6.70005C200.867 7.03338 201.2 7.20005 201.6 7.20005C202 7.20005 202.333 7.03338 202.6 6.70005C202.933 6.23338 203.1 5.60005 203.1 4.80005C203.1 4.06672 202.933 3.43338 202.6 2.90005C202.333 2.56672 202 2.40005 201.6 2.40005Z" fill="#363A36"/>
<path d="M211.6 0.800049V8.80005H210V2.90005L209.2 3.20005V1.50005L211.6 0.800049Z" fill="#363A36"/>
<path d="M219.9 6.19995C219.9 5.79995 219.733 5.46662 219.4 5.19995C219.067 4.86662 218.6 4.69995 218 4.69995L218.3 3.99995C218.7 3.93328 219 3.79995 219.2 3.59995C219.4 3.39995 219.5 3.19995 219.5 2.99995C219.5 2.59995 219.2 2.29995 218.8 2.29995C218.5 2.29995 218.3 2.59995 218.2 2.79995L216.7 2.49995C216.9 1.59995 217.7 0.699951 218.8 0.699951C219.467 0.699951 220 0.933284 220.4 1.39995C220.867 1.79995 221.1 2.33328 221.1 2.99995C221.1 3.46662 220.933 3.89995 220.6 4.29995C220.667 4.29995 220.7 4.33328 220.7 4.39995C221.233 4.86662 221.5 5.46662 221.5 6.19995C221.5 6.93328 221.233 7.53328 220.7 7.99995C220.167 8.53328 219.533 8.79995 218.8 8.79995C218.2 8.79995 217.667 8.59995 217.2 8.19995C216.733 7.86662 216.433 7.39995 216.3 6.79995L217.8 6.39995C217.9 6.79995 218.4 7.09995 218.8 7.09995C219.4 7.09995 219.9 6.69995 219.9 6.19995Z" fill="#363A36"/>
<path d="M11.4 19.8H1.5L7.9 26.2001H11.4C14.1 26.2001 16.3 28.5001 16.3 31.1C16.3 33.8001 14.1 36 11.4 36H6.6V28.7001L0 22.2001V42.4001V52.2001H6.6V42.4001H11.4C14.5333 42.4001 17.2333 41.3 19.5 39.1C21.7 36.9667 22.8 34.3001 22.8 31.1C22.8 27.9667 21.7 25.3001 19.5 23.1C17.2333 20.9 14.5333 19.8 11.4 19.8Z" fill="#363A36"/>
<path fill-rule="evenodd" clip-rule="evenodd" d="M48.1 40.4001L55.6 52.2001H47.7L38.3 37.8V52.2001H31.8V19.8H42.4C46 19.8 48.9 21.1 50.9 23.1C52.8 25 54 26.8 54 30.4V31.3C54 33.4334 53.3333 35.4667 52 37.4001C50.8 39.0001 49.9 39.7001 48.1 40.4001ZM47.3 30.6C47.3 29.4667 46.8667 28.4334 46 27.5C45.2 26.7 43.6 26.2001 42 26.2001H38.3V35.2001H40.8H43C45.4 35.2001 47.3 33.1 47.3 30.6Z" fill="#363A36"/>
<path fill-rule="evenodd" clip-rule="evenodd" d="M91.5 24.3C94.7 27.5667 96.3 31.4667 96.3 36C96.3 40.5333 94.7 44.4 91.5 47.6C88.2333 50.8 84.3333 52.4 79.8 52.4C75.2667 52.4 71.4 50.8 68.2 47.6C65 44.4 63.4 40.5333 63.4 36C63.4 31.4667 65 27.5667 68.2 24.3C71.4 21.1 75.2667 19.5 79.8 19.5C84.3333 19.5 88.2333 21.1 91.5 24.3ZM89.7 36C89.7 33.2667 88.7333 30.9333 86.8 29C84.8667 27.0667 82.5333 26.1 79.8 26.1C77.0667 26.1 74.7333 27.0667 72.8 29C70.9333 30.9333 70 33.2667 70 36C70 38.6667 70.9333 40.9667 72.8 42.9C74.7333 44.8333 77.0667 45.8 79.8 45.8C82.5333 45.8 84.8667 44.8333 86.8 42.9C88.7333 41.0333 89.7 38.7333 89.7 36Z" fill="#363A36"/>
<path d="M105.2 19V52.2H111.8V38.7L121.1 51.7L130.5 38.7V52.2H137V19L121.1 40.8L105.2 19Z" fill="#363A36"/>
<path d="M326.9 37.7001L307.4 19.1001V52.2001H313.9V34.2001L333.4 52.8001V19.7001H326.9V37.7001Z" fill="#363A36"/>
<path d="M6.6 26.2001H7.9L1.5 19.8H0V22.2001L6.6 28.7001V26.2001Z" fill="#EC1C51"/>
<path d="M178.6 32.6C177.933 29.4667 176.433 26.7 174.1 24.3C171.7 21.9667 168.933 20.4667 165.8 19.8L178.6 32.6Z" fill="#363A36"/>
<path fill-rule="evenodd" clip-rule="evenodd" d="M178.9 36.8C178.7 41 177.1 44.6 174.1 47.6C170.833 50.8 166.933 52.4 162.4 52.4C157.867 52.4 154 50.8 150.8 47.6C147.6 44.4 146 40.5333 146 36C146 31.4667 147.6 27.5667 150.8 24.3C153.867 21.3 157.467 19.7 161.6 19.5L178.9 36.8ZM172.4 36C172.4 33.2667 171.4 30.9333 169.4 29C167.467 27.0667 165.167 26.1 162.5 26.1C159.767 26.1 157.433 27.0667 155.5 29C153.567 31 152.6 33.3333 152.6 36C152.6 38.7333 153.567 41.0667 155.5 43C157.433 44.9333 159.767 45.9 162.5 45.9C165.167 45.9 167.467 44.9333 169.4 43C171.4 41.0667 172.4 38.7333 172.4 36Z" fill="#363A36"/>
<path d="M367.8 30.9C367.067 28.4333 365.833 26.3 364.1 24.5C362.4 22.8 360.1 21.4 357.4 20.5L367.8 30.9Z" fill="#363A36"/>
<path fill-rule="evenodd" clip-rule="evenodd" d="M368.4 35.4001C368.4 35.6001 368.4 35.8 368.4 36C368.4 40.7334 366.967 44.5334 364.1 47.4001C360.9 50.6001 356.967 52.2001 352.3 52.2001H343.6V19.8H352.3C352.433 19.8 352.6 19.8 352.8 19.8L368.4 35.4001ZM361.9 35.9001C361.9 30.1001 358 26.2001 352.2 26.2001H350.1V45.7001H352.3C358.1 45.7001 361.9 41.8001 361.9 35.9001Z" fill="#363A36"/>
<path fill-rule="evenodd" clip-rule="evenodd" d="M253.5 40.4001L261 52.2001H253.1L243.8 37.8V52.2001H237.3L237.2 19.8H247.8C251.4 19.8 254.3 21.1 256.3 23.1C258.3 25 259.4 26.8 259.4 30.4V31.3C259.4 33.4334 258.733 35.4667 257.4 37.4001C256.2 39.0001 255.3 39.7001 253.5 40.4001ZM252.7 30.6C252.7 29.4667 252.267 28.4334 251.4 27.5C250.6 26.7 249 26.2001 247.4 26.2001H243.7V35.2001H246.3H248.4C250.8 35.2001 252.7 33.1 252.7 30.6Z" fill="#363A36"/>
<path fill-rule="evenodd" clip-rule="evenodd" d="M283.6 19.1001L298.4 52.2001H291.3L289.1 47.3001H278L275.8 52.2001H268.8L283.6 19.1001ZM283.6 34.6001L280.6 41.5001H286.6L283.6 34.6001Z" fill="#363A36"/>
<path fill-rule="evenodd" clip-rule="evenodd" d="M228.2 42C228.2 44.8 227.233 47.2001 225.3 49.2001C223.3 51.2001 220.9 52.2001 218.1 52.2001H214.6L206.1 43.6V19.8H215.1C217.633 19.8 219.8 20.7 221.6 22.5C223.267 24.2334 224.1 26.2667 224.1 28.6C224.1 30.2 223.4 32.1 222.8 33.1C223.6 33.5 224.7 34.2 225.3 34.8C227.233 36.8 228.2 39.2 228.2 42ZM212.6 32C213.133 32 213.933 31.9667 215 31.9C216.6 31.7 217.9 30.5 217.9 28.9C217.9 27.4 216.6 26.1 215.1 26.1H212.6V32ZM221.9 41.9001C221.9 39.8001 220.1 38.1 218.1 38C216.2 37.8 214.5 37.9001 212.6 37.9001V45.8H218.1C220.2 45.8 221.9 44.0001 221.9 41.9001Z" fill="#363A36"/>
<path d="M206.1 47.5V52.2H210.7L206.1 47.5Z" fill="#363A36"/>
<path d="M79 69H75.6L88.9 83.3H92.3L79 69Z" fill="#EC1C51"/>
<path d="M84.3 69H81L94.3 83.3H97.6L84.3 69Z" fill="#EC1C51"/>
<path d="M110.4 70.6001L116.6 78.7001L122.8 70.6001H123.5V83.4001H120.3V78.7001L116.6 83.4001L112.9 78.7001V83.4001H109.8V70.6001H110.4Z" fill="#363A36"/>
<path d="M129.8 70.6001H138.7V73.7001H133.1V75.5001H137.4V78.6001H133.1V80.3001H138.7V83.4001H129.8V70.6001Z" fill="#363A36"/>
<path fill-rule="evenodd" clip-rule="evenodd" d="M144.5 83.4001V70.6001H149.2C150 70.6001 150.767 70.7001 151.5 70.9001C152.1 71.1668 152.633 71.5001 153.1 71.9001C153.9 72.7001 154.4 73.5001 154.4 74.9001V75.2001C154.4 76.1334 154.133 76.9668 153.6 77.7001C153.2 78.3001 152.8 78.6001 152.2 78.8001L155.3 83.4001H151.5L147.7 78.4001V83.4001H144.5ZM151.1 75.2001C151.1 74.8001 150.933 74.4334 150.6 74.1001C150.3 73.9001 149.6 73.7001 149 73.7001H147.6V76.7001H148.8H149.4C150.3 76.7001 151.1 76.1001 151.1 75.2001Z" fill="#363A36"/>
<path d="M167.9 70.5C169.8 70.6 171.4 71.5 172.5 72.5L172.7 72.7L170.5 74.9L170.3 74.8C169.5 74.0667 168.567 73.7 167.5 73.7C166.433 73.7 165.533 74.0333 164.8 74.7C164 75.3667 163.6 76.1333 163.6 77C163.6 77.9333 164 78.7333 164.8 79.4C165.533 80.0667 166.433 80.4 167.5 80.4C168.567 80.4 169.5 80.0333 170.3 79.3L170.5 79.1L172.7 81.3L172.5 81.5C171.9 82.1667 171.167 82.6667 170.3 83C169.433 83.3333 168.5 83.5 167.5 83.5C165.5 83.5 163.8 82.8667 162.4 81.6C161.067 80.3333 160.4 78.8 160.4 77C160.4 75.2 161.067 73.6667 162.4 72.4C163.8 71.1333 165.5 70.5 167.5 70.5H167.9Z" fill="#363A36"/>
<path d="M178.6 70.6001H181.7V75.5001H186V70.6001H189.1V83.4001H186V78.6001H181.7V83.4001H178.6V70.6001Z" fill="#363A36"/>
<path fill-rule="evenodd" clip-rule="evenodd" d="M195 83.4001L201.2 70.6001H201.9L208.1 83.4001H204.7L203.8 81.5001H199.4L198.4 83.4001H195ZM200.7 78.9001H202.4L201.6 77.2001L200.7 78.9001Z" fill="#363A36"/>
<path d="M214.7 70.6001L222.2 77.3001V70.6001H225.4V83.4001H224.7L217.2 76.7001V83.4001H214V70.6001H214.7Z" fill="#363A36"/>
<path fill-rule="evenodd" clip-rule="evenodd" d="M235.8 70.6001H236C238.3 70.6001 240.2 71.4001 241.5 72.5001C242.7 73.6334 243.3 75.1334 243.3 77.0001C243.3 78.8668 242.7 80.4001 241.5 81.6001C239.9 82.8001 237.9 83.4001 235.5 83.4001H231.8V70.6001H235.8ZM236.1 73.7001H235.2L235.3 80.3001H235.6C238.1 80.3001 239.7 79.2001 240 77.0001C240 74.9001 238.3 73.7001 236.1 73.7001Z" fill="#363A36"/>
<path d="M249.1 83.4001V70.6001H252.3V83.4001H249.1Z" fill="#363A36"/>
<path d="M261.4 79.4C261.4 79.8 261.9 80.3 262.5 80.4H262.7C263.4 80.4 264.1 79.9 264.1 79.4C264.1 78.6 262.7 78.4 261.5 78.1C259.8 77.6 258.3 76.3 258.3 74.5C258.3 72.3 260.1 70.5 262.7 70.5C265.1 70.5 266.8 72.1 267.1 74.1L267.2 74.4L263.9 75C263.9 74.2 263.5 73.7 262.7 73.7C262.1 73.7 261.6 74.1 261.6 74.7C261.6 75.5 262.9 75.8 264 76C265.8 76.5 267.4 77.7 267.4 79.6C267.4 81.8 265.3 83.5 262.7 83.5C260.4 83.5 258.4 82 258.1 80V79.7L261.4 79V79.4Z" fill="#363A36"/>
<path d="M273.2 70.6001H282.1V73.7001H276.5V75.5001H280.8V78.6001H276.5V80.3001H282.1V83.4001H273.2V70.6001Z" fill="#363A36"/>
</g>
<defs>
<clipPath id="clip0_4_167">
<rect width="369" height="84" fill="white"/>
</clipPath>
</defs>
</svg>
